<?xml version="1.0" encoding="UTF-8"?>
<!DOCTYPE svg PUBLIC "-//W3C//DTD SVG 1.1//EN" "http://www.w3.org/Graphics/SVG/1.1/DTD/svg11.dtd">
<!-- Creator: CorelDRAW X7 -->
<svg xmlns="http://www.w3.org/2000/svg" xml:space="preserve" width="35.264mm" height="19.1096mm" version="1.1" style="shape-rendering:geometricPrecision; text-rendering:geometricPrecision; image-rendering:optimizeQuality; fill-rule:evenodd; clip-rule:evenodd"
viewBox="0 0 377 204"
 xmlns:xlink="http://www.w3.org/1999/xlink">
 <defs>
  <style type="text/css">
   <![CDATA[
    .fil0 {fill:#E31E24}
   ]]>
  </style>
 </defs>
 <g id="Слой_x0020_1">
  <metadata id="CorelCorpID_0Corel-Layer"/>
  <path class="fil0" d="M0 200c0,1 0,2 1,3 1,1 2,1 3,1l116 -22c8,-1 19,-5 23,-12 1,-3 10,-21 18,-37l-37 6c-5,2 -9,3 -13,5 -12,5 -8,8 -21,10l-49 10c-1,0 -1,0 -2,-1 0,0 0,-1 0,-1 2,-2 7,-8 8,-10 3,-2 9,-4 14,-4l49 -10c2,-3 7,-10 9,-12 4,-4 13,-6 19,-7l127 -23c13,-4 27,-11 31,-21 2,-3 8,-13 13,-23l-83 15c-5,1 -13,3 -19,6 -11,5 -8,8 -21,11l-101 18c-1,0 -2,-1 -2,-1 0,0 0,-1 0,-1 2,-2 6,-8 8,-10 2,-2 9,-4 14,-4l109 -21c3,-3 8,-10 10,-12 3,-4 13,-6 19,-7l117 -21c3,-2 6,-5 8,-8 2,-4 7,-9 9,-13 0,-1 0,-2 -1,-3 0,-1 -1,-1 -2,-1 -85,13 -161,24 -245,37 -39,6 -48,11 -65,42 -22,41 -43,80 -64,121z"/>
 </g>
</svg>
