<?xml version="1.0" encoding="UTF-8"?>
<!DOCTYPE svg PUBLIC "-//W3C//DTD SVG 1.1//EN" "http://www.w3.org/Graphics/SVG/1.1/DTD/svg11.dtd">
<!-- Creator: CorelDRAW X7 -->
<svg xmlns="http://www.w3.org/2000/svg" xml:space="preserve" width="31.1812mm" height="29.8303mm" version="1.1" style="shape-rendering:geometricPrecision; text-rendering:geometricPrecision; image-rendering:optimizeQuality; fill-rule:evenodd; clip-rule:evenodd"
viewBox="0 0 4100 3922"
 xmlns:xlink="http://www.w3.org/1999/xlink">
 <defs>
  <style type="text/css">
   <![CDATA[
    .fil4 {fill:url(#id0)}
    .fil2 {fill:url(#id1)}
    .fil3 {fill:url(#id2)}
    .fil1 {fill:url(#id3)}
    .fil0 {fill:url(#id4)}
   ]]>
  </style>
  <linearGradient id="id0" gradientUnits="userSpaceOnUse" x1="2632.27" y1="1304.62" x2="2536.54" y2="547.594">
   <stop offset="0" style="stop-opacity:1; stop-color:#FF1500"/>
   <stop offset="0.568627" style="stop-opacity:1; stop-color:#FFE2E0"/>
   <stop offset="1" style="stop-opacity:1; stop-color:red"/>
  </linearGradient>
  <linearGradient id="id1" gradientUnits="userSpaceOnUse" x1="2687.35" y1="-142.93" x2="1289.55" y2="3000.14">
   <stop offset="0" style="stop-opacity:1; stop-color:#FF1500"/>
   <stop offset="0.509804" style="stop-opacity:1; stop-color:#4A0100"/>
   <stop offset="1" style="stop-opacity:1; stop-color:red"/>
  </linearGradient>
  <linearGradient id="id2" gradientUnits="userSpaceOnUse" x1="3068.62" y1="2231.15" x2="1608.66" y2="866.179">
   <stop offset="0" style="stop-opacity:1; stop-color:#8C150A"/>
   <stop offset="1" style="stop-opacity:1; stop-color:red"/>
  </linearGradient>
  <linearGradient id="id3" gradientUnits="userSpaceOnUse" x1="4454.19" y1="1738.91" x2="-467.195" y2="3089.15">
   <stop offset="0" style="stop-opacity:1; stop-color:#C5C6C6"/>
   <stop offset="0.258824" style="stop-opacity:1; stop-color:#5E5E5E"/>
   <stop offset="0.431373" style="stop-opacity:1; stop-color:#D0D1D1"/>
   <stop offset="0.541176" style="stop-opacity:1; stop-color:#5E5E5E"/>
   <stop offset="0.878431" style="stop-opacity:1; stop-color:#F2F2F2"/>
   <stop offset="1" style="stop-opacity:1; stop-color:#8C8C8C"/>
  </linearGradient>
  <linearGradient id="id4" gradientUnits="userSpaceOnUse" x1="980.407" y1="3441.59" x2="3976.89" y2="-460.121">
   <stop offset="0" style="stop-opacity:1; stop-color:#C5C6C6"/>
   <stop offset="0.231373" style="stop-opacity:1; stop-color:#474747"/>
   <stop offset="0.419608" style="stop-opacity:1; stop-color:#D0D1D1"/>
   <stop offset="0.639216" style="stop-opacity:1; stop-color:#525252"/>
   <stop offset="1" style="stop-opacity:1; stop-color:#FEFEFE"/>
  </linearGradient>
 </defs>
 <g id="Слой_x0020_1">
  <metadata id="CorelCorpID_0Corel-Layer"/>
  <g id="_2595583750336">
   <path class="fil0" d="M159 1954c0,-318 76,-618 213,-883l237 270c-78,189 -121,396 -121,613 0,448 184,853 481,1147 297,293 707,475 1160,475 453,0 863,-182 1160,-475 297,-294 481,-699 481,-1147 0,-311 -88,-602 -242,-848l225 -256c219,314 347,694 347,1104 0,538 -221,1025 -578,1377 -356,353 -849,571 -1393,571 -544,0 -1037,-218 -1393,-571 -357,-352 -577,-839 -577,-1377z"/>
   <path class="fil1" d="M0 1957c0,-364 99,-706 272,-998l231 262c-111,221 -174,471 -174,736 0,452 183,861 479,1157 296,296 705,479 1157,479 452,0 861,-183 1157,-479 296,-296 479,-705 479,-1157 0,-265 -63,-515 -174,-736l231 -262c173,292 272,634 272,998 0,543 -220,1034 -576,1389 -355,356 -846,576 -1389,576 -543,0 -1034,-220 -1389,-576 -356,-355 -576,-846 -576,-1389z"/>
  </g>
  <path class="fil2" d="M2089 35c-570,0 -1033,465 -1033,1036 0,172 43,342 124,493l704 1535c11,21 158,45 181,45 24,0 45,-13 57,-34l876 -1547c80,-150 123,-320 123,-492 0,-571 -463,-1036 -1032,-1036zm0 1554c-285,0 -517,-232 -517,-518 0,-285 232,-518 517,-518 284,0 516,233 516,518 0,286 -232,518 -516,518z"/>
  <g id="map.svg">
   <g>
    <g>
     <path class="fil3" d="M1905 0c-569,0 -1032,463 -1032,1033 0,170 42,340 124,490l852 1541c11,21 33,34 56,34 24,0 45,-13 57,-34l852 -1541c81,-150 124,-320 124,-490 0,-570 -463,-1033 -1033,-1033zm0 1549c-284,0 -516,-232 -516,-516 0,-285 232,-517 516,-517 285,0 516,232 516,517 0,284 -231,516 -516,516z"/>
    </g>
   </g>
   <g>
   </g>
   <g>
   </g>
   <g>
   </g>
   <g>
   </g>
   <g>
   </g>
   <g>
   </g>
   <g>
   </g>
   <g>
   </g>
   <g>
   </g>
   <g>
   </g>
   <g>
   </g>
   <g>
   </g>
   <g>
   </g>
   <g>
   </g>
   <g>
   </g>
  </g>
  <path class="fil4" d="M2069 2901l781 -1380c83,-149 127,-319 127,-490 0,-456 -304,-844 -725,-980 369,171 630,552 636,993 3,181 -39,360 -119,518l-700 1339zm-149 -1354c-292,0 -529,-231 -529,-516 0,-284 237,-516 529,-516 11,0 22,0 33,1 -42,-11 -85,-17 -130,-17 -291,0 -525,245 -521,545 4,301 245,545 536,545 97,0 188,-27 265,-74 -57,21 -119,32 -183,32z"/>
 </g>
</svg>
