<?xml version="1.0" encoding="UTF-8"?>
<!DOCTYPE svg PUBLIC "-//W3C//DTD SVG 1.1//EN" "http://www.w3.org/Graphics/SVG/1.1/DTD/svg11.dtd">
<!-- Creator: CorelDRAW X7 -->
<svg xmlns="http://www.w3.org/2000/svg" xml:space="preserve" width="80.8964mm" height="80.8964mm" version="1.1" style="shape-rendering:geometricPrecision; text-rendering:geometricPrecision; image-rendering:optimizeQuality; fill-rule:evenodd; clip-rule:evenodd"
viewBox="0 0 79493 79493"
 xmlns:xlink="http://www.w3.org/1999/xlink">
 <defs>
  <style type="text/css">
   <![CDATA[
    .fil0 {fill:#E31E24}
   ]]>
  </style>
 </defs>
 <g id="Слой_x0020_1">
  <metadata id="CorelCorpID_0Corel-Layer"/>
  <path class="fil0" d="M71315 1163l-32270 32270 -30867 -30867c-1552,-1552 -4063,-1549 -5612,0 -1549,1549 -1552,4060 0,5612l30867 30867 -32270 32270c-1549,1549 -1552,4061 0,5613 1552,1551 4063,1549 5612,0l32270 -32271 33673 33674c1552,1551 4064,1549 5613,0 1549,-1549 1551,-4061 0,-5613l-33674 -33673 32271 -32270c1549,-1549 1551,-4060 0,-5612 -1552,-1552 -4064,-1549 -5613,0z"/>
 </g>
</svg>
