<?xml version="1.0" encoding="UTF-8"?>
<!DOCTYPE svg PUBLIC "-//W3C//DTD SVG 1.1//EN" "http://www.w3.org/Graphics/SVG/1.1/DTD/svg11.dtd">
<!-- Creator: CorelDRAW X7 -->
<svg xmlns="http://www.w3.org/2000/svg" xml:space="preserve" width="109.039mm" height="109.039mm" version="1.1" style="shape-rendering:geometricPrecision; text-rendering:geometricPrecision; image-rendering:optimizeQuality; fill-rule:evenodd; clip-rule:evenodd"
viewBox="0 0 109039 109039"
 xmlns:xlink="http://www.w3.org/1999/xlink">
 <defs>
  <style type="text/css">
   <![CDATA[
    .fil0 {fill:#E31E24}
   ]]>
  </style>
 </defs>
 <g id="Слой_x0020_1">
  <metadata id="CorelCorpID_0Corel-Layer"/>
  <path class="fil0" d="M105000 48462l-46442 0 0 -44423c0,-2234 -1809,-4039 -4039,-4039 -2229,0 -4038,1805 -4038,4039l0 44423 -46442 0c-2230,0 -4039,1805 -4039,4038 0,2233 1809,4039 4039,4039l46442 0 0 48461c0,2233 1809,4039 4038,4039 2230,0 4039,-1806 4039,-4039l0 -48461 46442 0c2229,0 4039,-1806 4039,-4039 0,-2233 -1810,-4038 -4039,-4038z"/>
  <g id="_2819522410304">
  </g>
  <g id="_2819522410976">
  </g>
  <g id="_2819522410016">
  </g>
  <g id="_2819522410336">
  </g>
  <g id="_2819522409696">
  </g>
  <g id="_2819522410112">
  </g>
  <g id="_2819522409120">
  </g>
  <g id="_2819522408800">
  </g>
  <g id="_2819522408160">
  </g>
  <g id="_2819522407936">
  </g>
  <g id="_2819522409152">
  </g>
  <g id="_2819522407584">
  </g>
  <g id="_2819522407776">
  </g>
  <g id="_2819518560672">
  </g>
  <g id="_2819518559488">
  </g>
 </g>
</svg>
